<svg width="88" height="84" viewBox="0 0 88 84" fill="none" xmlns="http://www.w3.org/2000/svg">
<path fill-rule="evenodd" clip-rule="evenodd" d="M44 3.39482L3.55648 22.6974V61.3026L44 80.6052L84.4435 61.3026V22.6974L44 3.39482ZM88 21L44 0L0 21V63L44 84L88 63V21Z" fill="#CF0505"/>
<path d="M14 31H18.301L28.4142 49.2617H28.763L38.8762 31H43.1772V53H39.8061V36.2852H39.5155L30.216 53H26.9612L17.6617 36.2852H17.3711V53H14V31Z" fill="#CF0505"/>
<path d="M74 31V53H70.5127L54.2967 35.7266H54.0061V53H50.4025V31H53.8898L70.164 48.3164H70.4546V31H74Z" fill="#CF0505"/>
</svg>
